<?xml version="1.0" encoding="UTF-8" standalone="no"?>
<svg
   xmlns:dc="http://purl.org/dc/elements/1.1/"
   xmlns:cc="http://creativecommons.org/ns#"
   xmlns:rdf="http://www.w3.org/1999/02/22-rdf-syntax-ns#"
   xmlns:svg="http://www.w3.org/2000/svg"
   xmlns="http://www.w3.org/2000/svg"
   id="svg8"
   version="1.1"
   viewBox="0 0 210 297"
   height="297mm"
   width="210mm">
  <defs
     id="defs2">
    <clipPath
       id="clipPath4540"
       clipPathUnits="userSpaceOnUse">
      <rect
         rx="3.0238094"
         ry="10.205348"
         y="38.464287"
         x="-117.92857"
         height="254.00002"
         width="359.83334"
         id="rect4542"
         style="opacity:1;fill:#fffded;fill-opacity:1;stroke:none;stroke-width:5.59399986;stroke-linejoin:round;stroke-miterlimit:4;stroke-dasharray:none;stroke-opacity:1" />
    </clipPath>
  </defs>
  <metadata
     id="metadata5">
    <rdf:RDF>
      <cc:Work
         rdf:about="">
        <dc:format>image/svg+xml</dc:format>
        <dc:type
           rdf:resource="http://purl.org/dc/dcmitype/StillImage" />
        <dc:title></dc:title>
      </cc:Work>
    </rdf:RDF>
  </metadata>
  <g
     id="layer1">
    <path
       transform="matrix(1,0,0,-1,34.017855,403.7693)"
       clip-path="url(#clipPath4540)"
       d="m 150.46404,484.19779 c -2.17514,1.75176 -75.205422,-24.63358 -77.998248,-24.63859 -3.093022,-0.006 -84.666006,26.04161 -87.25551,24.35008 -2.338177,-1.52736 0.188177,-79.1368 -0.670094,-81.79449 -0.950526,-2.94335 -50.930275,-72.47485 -50.121732,-75.46033 0.730069,-2.69572 75.3217206,-24.27565 77.584106,-25.91318 2.505564,-1.81355 53.189365,-70.83354 56.278576,-70.98713 2.789385,-0.13869 46.363202,64.13363 48.619712,65.77926 2.49905,1.82251 83.80311,28.69732 84.9038,31.58787 0.99387,2.61001 -46.66768,63.91241 -47.53547,66.567 -0.96107,2.93993 -1.3962,88.56946 -3.80514,90.50951 z"
       id="path815"
       style="opacity:1;fill:none;fill-opacity:1;stroke:#000000;stroke-width:5.59399986;stroke-linejoin:round;stroke-miterlimit:4;stroke-dasharray:none;stroke-opacity:1" />
  </g>
</svg>
